<mxfile host="app.diagrams.net" modified="2023-05-26T01:02:10.399Z" agent="Mozilla/5.0 (Windows NT 10.0; Win64; x64) AppleWebKit/537.36 (KHTML, like Gecko) Chrome/113.0.0.0 Safari/537.36" etag="uJeV6jlbAMjYawPHCKpo" version="21.3.2" type="device">
  <diagram name="페이지-1" id="0eS2DMfyNDpo3QA9yExM">
    <mxGraphModel dx="989" dy="543" grid="1" gridSize="10" guides="1" tooltips="1" connect="1" arrows="1" fold="1" page="1" pageScale="1" pageWidth="4681" pageHeight="3300" math="0" shadow="0">
      <root>
        <mxCell id="0" />
        <mxCell id="1" parent="0" />
        <mxCell id="UZUREBoZ_MVO5L1Cf4n_-7" style="rounded=0;orthogonalLoop=1;jettySize=auto;html=1;entryX=0.5;entryY=0;entryDx=0;entryDy=0;exitX=0.5;exitY=1;exitDx=0;exitDy=0;" edge="1" parent="1" source="UZUREBoZ_MVO5L1Cf4n_-1" target="UZUREBoZ_MVO5L1Cf4n_-2">
          <mxGeometry relative="1" as="geometry" />
        </mxCell>
        <mxCell id="UZUREBoZ_MVO5L1Cf4n_-13" style="edgeStyle=none;shape=connector;rounded=0;orthogonalLoop=1;jettySize=auto;html=1;entryX=0.5;entryY=0;entryDx=0;entryDy=0;labelBackgroundColor=default;strokeColor=default;fontFamily=Helvetica;fontSize=11;fontColor=default;endArrow=classic;" edge="1" parent="1" source="UZUREBoZ_MVO5L1Cf4n_-1" target="UZUREBoZ_MVO5L1Cf4n_-4">
          <mxGeometry relative="1" as="geometry" />
        </mxCell>
        <mxCell id="UZUREBoZ_MVO5L1Cf4n_-15" style="edgeStyle=none;shape=connector;rounded=0;orthogonalLoop=1;jettySize=auto;html=1;entryX=0.5;entryY=0;entryDx=0;entryDy=0;labelBackgroundColor=default;strokeColor=default;fontFamily=Helvetica;fontSize=11;fontColor=default;endArrow=classic;exitX=0.5;exitY=1;exitDx=0;exitDy=0;" edge="1" parent="1" source="UZUREBoZ_MVO5L1Cf4n_-1" target="UZUREBoZ_MVO5L1Cf4n_-5">
          <mxGeometry relative="1" as="geometry" />
        </mxCell>
        <mxCell id="UZUREBoZ_MVO5L1Cf4n_-16" style="edgeStyle=none;shape=connector;rounded=0;orthogonalLoop=1;jettySize=auto;html=1;entryX=0.5;entryY=0;entryDx=0;entryDy=0;labelBackgroundColor=default;strokeColor=default;fontFamily=Helvetica;fontSize=11;fontColor=default;endArrow=classic;exitX=0.5;exitY=1;exitDx=0;exitDy=0;" edge="1" parent="1" source="UZUREBoZ_MVO5L1Cf4n_-1" target="UZUREBoZ_MVO5L1Cf4n_-3">
          <mxGeometry relative="1" as="geometry" />
        </mxCell>
        <mxCell id="UZUREBoZ_MVO5L1Cf4n_-18" style="edgeStyle=none;shape=connector;rounded=0;orthogonalLoop=1;jettySize=auto;html=1;entryX=0.5;entryY=0;entryDx=0;entryDy=0;labelBackgroundColor=default;strokeColor=default;fontFamily=Helvetica;fontSize=11;fontColor=default;endArrow=classic;exitX=0.5;exitY=1;exitDx=0;exitDy=0;" edge="1" parent="1" source="UZUREBoZ_MVO5L1Cf4n_-1" target="UZUREBoZ_MVO5L1Cf4n_-6">
          <mxGeometry relative="1" as="geometry" />
        </mxCell>
        <mxCell id="UZUREBoZ_MVO5L1Cf4n_-1" value="학생정보" style="rounded=1;arcSize=10;whiteSpace=wrap;html=1;align=center;" vertex="1" parent="1">
          <mxGeometry x="710" y="311" width="100" height="51" as="geometry" />
        </mxCell>
        <mxCell id="UZUREBoZ_MVO5L1Cf4n_-2" value="학번" style="ellipse;whiteSpace=wrap;html=1;align=center;fontStyle=4;" vertex="1" parent="1">
          <mxGeometry x="470" y="460" width="100" height="40" as="geometry" />
        </mxCell>
        <mxCell id="UZUREBoZ_MVO5L1Cf4n_-3" value="이름" style="ellipse;whiteSpace=wrap;html=1;align=center;" vertex="1" parent="1">
          <mxGeometry x="590" y="460" width="100" height="40" as="geometry" />
        </mxCell>
        <mxCell id="UZUREBoZ_MVO5L1Cf4n_-4" value="학과" style="ellipse;whiteSpace=wrap;html=1;align=center;" vertex="1" parent="1">
          <mxGeometry x="710" y="460" width="100" height="40" as="geometry" />
        </mxCell>
        <mxCell id="UZUREBoZ_MVO5L1Cf4n_-5" value="학년" style="ellipse;whiteSpace=wrap;html=1;align=center;" vertex="1" parent="1">
          <mxGeometry x="830" y="460" width="100" height="40" as="geometry" />
        </mxCell>
        <mxCell id="UZUREBoZ_MVO5L1Cf4n_-6" value="전화번호" style="ellipse;whiteSpace=wrap;html=1;align=center;" vertex="1" parent="1">
          <mxGeometry x="950" y="460" width="100" height="40" as="geometry" />
        </mxCell>
      </root>
    </mxGraphModel>
  </diagram>
</mxfile>
